<?xml version="1.0" encoding="utf-8"?>
<!-- Generator: Adobe Illustrator 24.2.3, SVG Export Plug-In . SVG Version: 6.00 Build 0)  -->
<svg version="1.1" id="Layer_1" xmlns="http://www.w3.org/2000/svg" xmlns:xlink="http://www.w3.org/1999/xlink" x="0px" y="0px"
	 viewBox="0 0 450.96 450.27" style="enable-background:new 0 0 450.96 450.27;" xml:space="preserve">
<style type="text/css">
	.st0{fill:#FFFF00;}
</style>
<path class="st0" d="M450.96,225.04c-0.04,123.7-101.37,225.31-224.62,225.23C101.42,450.2-0.13,349.23,0,225.22
	C0.13,100.97,101.43-0.14,225.65,0C349.73,0.14,451,101.29,450.96,225.04z M55.82,112.41c-1.35,1.37-3.01,2.55-4.01,4.14
	c-17.31,27.41-27.89,57.28-30.5,89.55c-5.18,63.89,15.22,118.73,60.07,164.47c2.19,2.23,4.95,4.11,7.77,5.49
	c19.76,9.63,40.81,13.68,62.65,13.59c9.45-0.04,18.92-1.08,27.48-5.63c12.16-6.47,12.72-21.8,0.72-28.46
	c-5.33-2.96-11.61-4.34-17.58-5.96c-7.44-2.03-15.06-3.41-22.51-5.4c-3.01-0.8-4.5,0.05-5.3,2.81c-0.89,3.07-1.19,6.49-2.79,9.13
	c-1.72,2.85-4.55,5.08-7.13,7.31c-0.52,0.45-2.08-0.31-3.16-0.52c0.25-1.04,0.39-2.13,0.77-3.12c0.79-2.04,2.72-4.21,2.4-6
	c-1.29-7.24-3.15-14.39-5.03-21.5c-1.67-6.31-5.34-10-9.38-9.93c-3.98,0.06-6.87,4.06-8.15,10.83c-0.69,3.62-1.34,7.33-2.73,10.71
	c-2.9,7.06-7.77,9.9-15.05,9.48c-7.5-0.44-15.41-6-17.16-12.15c-0.1-0.35,0.37-0.86,0.69-1.54c3.96,0.66,7.88,1.6,11.85,1.91
	c4.95,0.39,7.33-1.74,7.46-6.71c0.1-3.85-0.58-7.72-0.75-11.59c-0.26-5.71-2.01-12.05-0.13-16.99c2.27-6-0.2-9.03-3.2-12.88
	c-9.59-12.31-17.99-25.28-22.08-40.6c-0.32-1.21-1.09-2.3-2.15-4.45c-5.77,10.96-14.06,14.76-25.21,11.24
	c-4.38-1.39-7.43-4.11-8.83-9.4c12.43,0.09,14.74-8.97,16.79-17.82c1.36-5.88,2.29-11.96,2.49-17.98
	c0.41-12.3-0.08-24.63,0.31-36.92c0.48-15.43,2.73-30.33,15.73-41.1c3.36-2.79,2.88-5.4-0.71-8.14c-5.96-4.55-6.82-9.21-3.7-15.97
	c1.14,0.4,2.73,0.45,3.35,1.25c4.55,5.94,6.36,6.07,10.88-0.02c4.51-6.08,8.46-12.61,13.25-18.45c10.3-12.55,22.65-21.57,39.93-21.3
	c3.69,0.06,7.42-0.26,11.08-0.74c4.51-0.59,8.97-1.52,13.45-2.3c-0.07-0.48-0.13-0.95-0.2-1.43c-2.45-0.34-5.01-0.35-7.33-1.09
	c-9.29-2.98-20.93-3.04-21.55-17.39c-1.25,0.57-2.01,0.82-2.66,1.24c-23.28,14.87-42.93,33.53-58.65,56.27
	C56.51,109.48,56.31,111.04,55.82,112.41z M377.87,361.37c52.86-56.27,72.7-151.16,28.04-233.34
	C359.97,43.49,269.98,11.83,202.14,22.06c0.59,3.45,1.19,6.93,1.78,10.4c-0.67,0.42-1.34,0.84-2.01,1.26
	c-0.75-1.29-1.27-2.8-2.28-3.84c-6.64-6.87-16.3-7.13-23.5-0.75c-7.79,6.91-6.65,17.98,2.64,22.63c3.7,1.85,7.89,2.98,11.98,3.73
	c4.81,0.89,10.01,0.55,11.4,7.23c6.87-3.89,9.01-12.99,17.95-13.09c-3.65,10.05-2.84,11.16,7.93,11.62c1.85,0.08,3.71,0.05,5.56,0.1
	c8.25,0.23,16.5,0.36,24.75,0.74c4.67,0.22,7.61,2.84,9.33,7.26c3.08,7.89,3.25,8.3,11.75,7.46c11.71-1.16,27,11.59,29.86,22.64
	c0.88,3.39-0.07,5.03-3.74,5.36c-2.64,0.24-5.33,0.9-7.79,1.88c-2.79,1.11-4.09,3.75-2,6.1c6.89,7.75,13.25,16.68,25.21,16.65
	c6.57-0.01,12.14,2.13,17.29,6.03c2.4,1.81,5.05,3.42,7.81,4.59c4.52,1.9,8.99,2.27,13.39-1.01c1.56-1.16,4.14-1.72,6.09-1.44
	c7.49,1.07,15.96,11,16.58,19.2c-1.82,0.4-3.68,0.81-4.77,1.05c0.44,3.32,1.65,6.42,1.06,9.12c-1.61,7.37-4.1,14.54-5.99,21.86
	c-1.01,3.91-2.06,7.4-6.9,7.68c-4.29-10.7-8.85-13.5-18.23-9.51c1.96,1.13,3.33,1.77,4.53,2.64c6.36,4.59,10.62,10.83,13.37,18.04
	c2.64,6.91,4.72,14.05,7.34,20.97c2.79,7.37,5.34,14.93,9.06,21.83c4.43,8.23,12.36,11.11,21.44,10.58
	c8.43-0.49,12.72-3.43,14.49-10.21c2.76-10.56,1.71-16.49-4.83-20.38c-0.89-0.53-1.44-1.64-2.15-2.48c0.12-0.44,0.23-0.88,0.35-1.32
	c1.77,0.1,3.71-0.23,5.29,0.37c5.54,2.11,9.04,6.3,10.82,11.9c5.48,17.28-11.73,34.36-30.48,30.27c-2.56-0.56-5.12-1.1-7.68-1.65
	c-0.38,0.45-0.75,0.89-1.13,1.34c1.67,2.28,2.88,5.23,5.08,6.73c9.92,6.74,19.54,1.63,29.81-2.13c-0.7,1.61-0.92,2.39-1.34,3.04
	c-8.64,13.32-23.12,15.54-35.61,5.26c-10.45-8.6-17.68-19.63-21.38-32.51c-3.11-10.82-4.83-22.03-7.29-33.05
	c-0.59-2.63-1.65-5.15-2.71-8.37c-2.14,1.58-3.55,2.28-4.5,3.37c-5.32,6.14-11.84,7.6-19.64,5.98c-7.07-1.47-14.27-2.92-21.45-3.1
	c-8.36-0.21-15.05-3.1-20.69-8.95c-2.81-2.91-5.62-5.83-8.23-8.92c-12.52-14.84-29.04-23.27-46.97-29.46
	c-5.85-2.02-11.48-1.76-17.08,1.26c-5.33,2.88-10.86,5.44-16.41,7.87c-10.14,4.44-20.73,5.92-31.66,3.89
	c-8.12-1.5-14.04-5.89-16.09-14.17c-1.68-6.8-2.77-13.74-4-20c-4.47,9.68-2.71,18.44,6.68,30.45c-0.43,0.81-0.85,1.7-1.35,2.55
	c-8.11,13.64-7.26,29.74,2.44,42.13c10.98,14.02,25.93,20.55,43.27,20.24c19.18-0.33,38.37-1.8,57.49-3.45
	c16.35-1.42,32.67-2.76,48.91,0.13c34.05,6.05,56.85,27.22,72.86,56.4c7.64,13.93,9.89,29.42,6.58,45.18
	C382.86,346.67,380.16,353.78,377.87,361.37z M329.75,201.82c0-6.86,0.15-13.05-0.15-19.22c-0.05-0.99-1.95-2.2-3.24-2.78
	c-6.22-2.83-13.09-4.64-18.65-8.4c-8.19-5.55-15.45-12.47-23.14-18.76c-9.15-7.48-18.4-14.82-30.1-18.03
	c-11.01-3.02-24.24,2.74-30.05,13.51c3,1.4,5.87,3.1,8.97,4.13c13.59,4.52,25.64,11.81,37.19,20.09
	c8.08,5.79,16.19,11.56,24.5,17.01C305.32,196.08,316.38,200.8,329.75,201.82z M173.49,61.96c0.32-0.58,0.65-1.15,0.97-1.73
	c-12.49-4.97-19.15-13.83-18.73-27.77c-3.41,1.31-6.17,2.37-8.6,3.31c1.72,2.99,3.28,5.71,4.84,8.42c-0.4,0.36-0.8,0.72-1.2,1.08
	c-1.27-0.61-2.5-1.62-3.82-1.75c-2.98-0.28-6.52-1.12-8.89,0.1c-2.8,1.44-4.61,4.81-6.84,7.34c2.66,1.68,5.11,4.15,8,4.88
	c9.42,2.38,19,4.19,28.54,6.06C169.6,62.27,171.58,61.96,173.49,61.96z M261.46,110.87c0.25-0.72,0.49-1.45,0.74-2.17
	c-7.83-4.27-15.48-8.93-23.59-12.6c-3.11-1.41-7.41-1.31-10.85-0.51c-3.18,0.74-6.42,2.85-8.74,5.23c-2.07,2.13-0.85,5.25,2.39,4.3
	c8.3-2.41,15.5,1.31,23.13,2.92C250.13,109.23,255.81,109.94,261.46,110.87z M334.71,150.2c-5.09-3.56-9.36-5.22-14.19-3.87
	c-3.05,0.85-4.88,3.29-3.88,6.51c0.41,1.33,2.73,3.32,3.58,3.05C324.75,154.5,329.09,152.49,334.71,150.2z M340.95,191.13
	c-0.57,0.61-2.31,1.63-2.65,3.01c-0.69,2.81,4.26,7.78,7.53,7.34c1.45-0.19,3.42-2.06,3.8-3.51
	C350.34,195.22,345.72,191.35,340.95,191.13z"/>
</svg>
